<svg width="81" height="16" viewBox="0 0 81 16" fill="none" xmlns="http://www.w3.org/2000/svg">
<path d="M4.092 10.028C3.932 10.028 3.776 9.972 3.624 9.86L3.264 9.5C3.176 9.404 3.128 9.352 3.12 9.344C3.112 9.336 3.064 9.308 2.976 9.26C2.944 9.228 2.892 9.176 2.82 9.104C2.756 9.032 2.716 8.992 2.7 8.984L2.712 8.996C2.672 8.98 2.628 8.952 2.58 8.912C2.532 8.872 2.5 8.852 2.484 8.852L2.472 8.828C2.344 8.772 2.2 8.68 2.04 8.552C1.88 8.416 1.704 8.296 1.512 8.192C1.456 8.16 1.424 8.128 1.416 8.096C1.408 8.064 1.388 8.044 1.356 8.036C1.332 8.02 1.272 7.976 1.176 7.904C1.08 7.832 0.968 7.752 0.84 7.664C0.72 7.568 0.608 7.472 0.504 7.376C0.4 7.28 0.336 7.196 0.312 7.124C0.336 7.132 0.34 7.1 0.324 7.028C0.308 6.956 0.316 6.872 0.348 6.776C0.38 6.68 0.48 6.6 0.648 6.536C0.664 6.544 0.74 6.52 0.876 6.464C1.02 6.4 1.192 6.312 1.392 6.2C1.6 6.08 1.796 5.948 1.98 5.804C2.012 5.788 2.052 5.776 2.1 5.768C2.148 5.752 2.184 5.736 2.208 5.72C2.256 5.68 2.32 5.656 2.4 5.648C2.48 5.64 2.536 5.616 2.568 5.576V5.552C2.64 5.48 2.704 5.404 2.76 5.324C2.92 5.124 3.068 4.988 3.204 4.916C3.34 4.844 3.436 4.784 3.492 4.736C3.556 4.68 3.632 4.652 3.72 4.652C3.848 4.652 3.96 4.7 4.056 4.796C4.16 4.892 4.212 4.94 4.212 4.94L4.248 4.988C4.296 5.092 4.32 5.188 4.32 5.276C4.32 5.484 4.18 5.576 3.9 5.552C3.892 5.544 3.892 5.556 3.9 5.588C3.916 5.62 3.916 5.644 3.9 5.66C3.884 5.668 3.86 5.672 3.828 5.672C3.796 5.664 3.772 5.664 3.756 5.672C3.636 5.752 3.556 5.808 3.516 5.84C3.484 5.864 3.448 5.936 3.408 6.056C3.4 6.072 3.36 6.084 3.288 6.092C3.224 6.1 3.156 6.112 3.084 6.128C3.02 6.136 2.984 6.148 2.976 6.164L2.796 6.356C2.62 6.54 2.416 6.664 2.184 6.728C1.952 6.784 1.768 6.844 1.632 6.908C1.6 6.9 1.552 6.94 1.488 7.028C1.432 7.116 1.404 7.16 1.404 7.16C1.372 7.192 1.408 7.252 1.512 7.34C1.624 7.428 1.772 7.536 1.956 7.664C2.148 7.784 2.352 7.916 2.568 8.06C2.784 8.204 2.984 8.348 3.168 8.492C3.304 8.596 3.412 8.668 3.492 8.708C3.58 8.748 3.652 8.784 3.708 8.816C3.772 8.84 3.836 8.884 3.9 8.948C3.972 9.004 4.056 9.112 4.152 9.272C4.224 9.384 4.272 9.484 4.296 9.572C4.328 9.652 4.344 9.724 4.344 9.788C4.344 9.948 4.26 10.028 4.092 10.028ZM6.66122 11.972C6.56522 11.972 6.51722 11.896 6.51722 11.744C6.51722 11.664 6.54122 11.508 6.58922 11.276C6.64522 11.044 6.73722 10.804 6.86522 10.556C6.92122 10.444 6.99322 10.3 7.08122 10.124C7.17722 9.948 7.27322 9.768 7.36922 9.584C7.46522 9.4 7.55322 9.232 7.63322 9.08C7.72122 8.928 7.78922 8.816 7.83722 8.744C7.93322 8.592 8.04122 8.424 8.16122 8.24C8.28922 8.056 8.41322 7.88 8.53322 7.712C8.66122 7.536 8.76922 7.388 8.85722 7.268C8.95322 7.148 9.00922 7.076 9.02522 7.052C9.02522 7.036 9.05322 6.996 9.10922 6.932C9.16522 6.86 9.22522 6.784 9.28922 6.704C9.36122 6.616 9.42122 6.54 9.46922 6.476C9.52522 6.412 9.55322 6.38 9.55322 6.38C9.64922 6.252 9.76522 6.108 9.90122 5.948C10.0452 5.78 10.1852 5.612 10.3212 5.444C10.4652 5.276 10.5892 5.132 10.6932 5.012C10.7332 4.956 10.7932 4.856 10.8732 4.712C10.9612 4.56 11.0332 4.456 11.0892 4.4C11.1452 4.352 11.2092 4.288 11.2812 4.208C11.3612 4.12 11.4332 4.06 11.4972 4.028L11.5452 4.004C11.1932 4.012 10.8612 4.036 10.5492 4.076C10.2452 4.108 9.95722 4.156 9.68522 4.22C9.55722 4.252 9.44522 4.288 9.34922 4.328C9.25322 4.36 9.14922 4.396 9.03722 4.436C8.94122 4.468 8.84122 4.5 8.73722 4.532C8.63322 4.556 8.53722 4.588 8.44922 4.628C8.06522 4.804 7.77722 4.992 7.58522 5.192C7.40122 5.392 7.30922 5.548 7.30922 5.66V5.696C7.30922 5.752 7.31722 5.808 7.33322 5.864C7.35722 5.92 7.39322 5.928 7.44122 5.888C7.48122 5.864 7.51322 5.852 7.53722 5.852C7.60922 5.852 7.64522 5.888 7.64522 5.96C7.64522 6.016 7.61322 6.064 7.54922 6.104C7.48522 6.16 7.39322 6.208 7.27322 6.248C7.15322 6.288 7.07322 6.308 7.03322 6.308C6.86522 6.308 6.71322 6.304 6.57722 6.296C6.44122 6.28 6.34522 6.228 6.28922 6.14C6.28122 6.084 6.28122 6.012 6.28922 5.924C6.30522 5.836 6.34122 5.74 6.39722 5.636C6.41322 5.62 6.41722 5.588 6.40922 5.54C6.40922 5.492 6.42522 5.452 6.45722 5.42H6.44522C6.47722 5.38 6.51322 5.36 6.55322 5.36C6.60122 5.352 6.62922 5.34 6.63722 5.324C6.86922 5.044 7.25322 4.76 7.78922 4.472C8.32522 4.176 9.04122 3.964 9.93722 3.836C9.97722 3.828 10.0212 3.824 10.0692 3.824C10.1252 3.824 10.1332 3.824 10.0932 3.824H10.0812C10.0652 3.824 10.1052 3.816 10.2012 3.8C10.3052 3.784 10.4132 3.768 10.5252 3.752C10.6372 3.728 10.7012 3.716 10.7172 3.716C10.8852 3.692 11.0292 3.68 11.1492 3.68C11.2932 3.68 11.4372 3.688 11.5812 3.704C11.7252 3.72 11.9172 3.732 12.1572 3.74C13.1252 3.756 13.9532 3.876 14.6412 4.1C15.3292 4.324 15.8532 4.632 16.2132 5.024C16.5812 5.408 16.7652 5.856 16.7652 6.368C16.7652 6.68 16.6932 7.008 16.5492 7.352C16.4132 7.696 16.1972 8.056 15.9012 8.432C15.5412 8.888 15.1532 9.264 14.7372 9.56C14.3292 9.856 13.9252 10.108 13.5252 10.316C13.1252 10.516 12.7612 10.712 12.4332 10.904C12.1212 11.088 11.7772 11.236 11.4012 11.348C11.0252 11.468 10.6692 11.556 10.3332 11.612C9.99722 11.676 9.73722 11.724 9.55322 11.756C9.21722 11.804 8.88922 11.828 8.56922 11.828C8.33722 11.828 8.12922 11.816 7.94522 11.792C7.76922 11.768 7.63722 11.728 7.54922 11.672C7.43722 11.608 7.38122 11.5 7.38122 11.348C7.38122 11.26 7.40122 11.184 7.44122 11.12C7.48922 11.056 7.55322 11.024 7.63322 11.024C7.73722 11.024 7.84922 11.08 7.96922 11.192C8.04922 11.264 8.15722 11.312 8.29322 11.336C8.42922 11.368 8.55722 11.384 8.67722 11.384C8.80522 11.384 8.88522 11.384 8.91722 11.384C8.94922 11.392 8.98522 11.396 9.02522 11.396C9.06522 11.396 9.10522 11.396 9.14522 11.396C9.31322 11.396 9.51322 11.38 9.74522 11.348C9.98522 11.316 10.2292 11.276 10.4772 11.228C10.7252 11.18 10.9532 11.128 11.1612 11.072C11.3692 11.016 11.5332 10.96 11.6532 10.904C12.5332 10.48 13.2612 10.076 13.8372 9.692C14.4132 9.308 14.8732 8.872 15.2172 8.384C15.4012 8.136 15.5372 7.864 15.6252 7.568C15.7212 7.272 15.7692 6.976 15.7692 6.68C15.7692 6.448 15.7412 6.224 15.6852 6.008C15.6292 5.784 15.5332 5.572 15.3972 5.372C15.2772 5.18 15.0772 5 14.7972 4.832C14.5252 4.656 14.2052 4.504 13.8372 4.376C13.4692 4.24 13.0772 4.14 12.6612 4.076C12.6452 4.188 12.6052 4.316 12.5412 4.46C12.4772 4.604 12.3652 4.744 12.2052 4.88C12.1092 4.968 11.9852 5.056 11.8332 5.144C11.6892 5.224 11.5852 5.308 11.5212 5.396C11.4652 5.484 11.3652 5.58 11.2212 5.684C11.0852 5.788 10.9492 5.884 10.8132 5.972C10.6852 6.06 10.5972 6.132 10.5492 6.188C10.5172 6.228 10.4532 6.304 10.3572 6.416C10.2692 6.528 10.1692 6.652 10.0572 6.788C9.95322 6.924 9.85722 7.048 9.76922 7.16C9.68122 7.272 9.62122 7.348 9.58922 7.388C9.31722 7.716 9.11322 7.98 8.97722 8.18C8.84922 8.372 8.75722 8.52 8.70122 8.624C8.65322 8.728 8.61322 8.808 8.58122 8.864H8.56922C8.51322 8.968 8.41322 9.072 8.26922 9.176C8.12522 9.272 8.03322 9.356 7.99322 9.428C7.93722 9.556 7.85322 9.708 7.74122 9.884C7.62922 10.052 7.56122 10.18 7.53722 10.268C7.51322 10.324 7.44522 10.432 7.33322 10.592C7.22122 10.752 7.12922 10.984 7.05722 11.288C7.00122 11.536 6.93322 11.712 6.85322 11.816C6.78122 11.92 6.71722 11.972 6.66122 11.972ZM17.5496 11.312C17.5256 11.312 17.4736 11.296 17.3936 11.264C17.3136 11.24 17.2296 11.216 17.1416 11.192C17.0536 11.168 16.9896 11.156 16.9496 11.156H16.9376C16.7856 11.156 16.6696 11.096 16.5896 10.976C16.5176 10.848 16.4696 10.732 16.4456 10.628C16.4376 10.588 16.4296 10.548 16.4216 10.508C16.4216 10.46 16.4216 10.412 16.4216 10.364C16.4216 10.1 16.4856 9.8 16.6136 9.464C16.7416 9.128 16.9136 8.78 17.1296 8.42C17.3536 8.06 17.6056 7.724 17.8856 7.412C18.1736 7.084 18.4656 6.828 18.7616 6.644C19.0576 6.46 19.3256 6.356 19.5656 6.332C19.6936 6.332 19.8256 6.368 19.9616 6.44C20.0976 6.512 20.1936 6.548 20.2496 6.548H20.2616C20.4296 6.548 20.5416 6.616 20.5976 6.752C20.6536 6.888 20.6816 7.024 20.6816 7.16C20.6816 7.24 20.6656 7.324 20.6336 7.412C20.6016 7.5 20.5736 7.572 20.5496 7.628C20.5336 7.684 20.5336 7.704 20.5496 7.688L20.5616 7.676C20.4736 7.836 20.3736 8 20.2616 8.168C20.1576 8.328 19.9856 8.54 19.7456 8.804C19.6496 8.908 19.5176 9.012 19.3496 9.116C19.1896 9.212 19.0336 9.3 18.8816 9.38C18.7296 9.46 18.6216 9.516 18.5576 9.548C18.4936 9.58 18.4096 9.596 18.3056 9.596C18.2016 9.596 18.0856 9.584 17.9576 9.56C17.8376 9.536 17.7336 9.524 17.6456 9.524C17.5976 9.524 17.5536 9.528 17.5136 9.536C17.4736 9.544 17.4456 9.568 17.4296 9.608C17.3016 9.816 17.2376 10.024 17.2376 10.232C17.2376 10.36 17.2656 10.468 17.3216 10.556C17.3856 10.636 17.4896 10.676 17.6336 10.676C17.6816 10.676 17.7336 10.672 17.7896 10.664C17.8456 10.656 17.9016 10.64 17.9576 10.616C18.0936 10.592 18.1896 10.58 18.2456 10.58C18.3016 10.58 18.3616 10.572 18.4256 10.556C18.4976 10.54 18.6136 10.5 18.7736 10.436C18.9496 10.364 19.0816 10.312 19.1696 10.28C19.2656 10.248 19.3376 10.22 19.3856 10.196C19.4416 10.172 19.4976 10.144 19.5536 10.112C19.6096 10.08 19.6976 10.032 19.8176 9.968C19.9056 9.92 19.9536 9.896 19.9616 9.896C19.9776 9.896 20.0016 9.888 20.0336 9.872C20.0656 9.848 20.1496 9.792 20.2856 9.704C20.4296 9.608 20.5416 9.56 20.6216 9.56C20.6776 9.56 20.7056 9.58 20.7056 9.62C20.7056 9.652 20.6776 9.7 20.6216 9.764C20.5736 9.828 20.4856 9.904 20.3576 9.992C20.2216 10.088 20.0656 10.2 19.8896 10.328C19.7216 10.456 19.5656 10.556 19.4216 10.628C19.3736 10.636 19.3296 10.656 19.2896 10.688C19.2576 10.712 19.2096 10.732 19.1456 10.748L18.4736 11.036L18.4856 11.024C18.5096 11 18.4816 11 18.4016 11.024C18.3296 11.048 18.2336 11.084 18.1136 11.132C18.0016 11.18 17.8896 11.22 17.7776 11.252C17.6736 11.292 17.5976 11.312 17.5496 11.312ZM18.0176 9.248C18.0496 9.248 18.0816 9.248 18.1136 9.248C18.1456 9.24 18.1776 9.232 18.2096 9.224C18.2656 9.176 18.3176 9.14 18.3656 9.116C18.4136 9.092 18.4776 9.052 18.5576 8.996C18.6376 8.94 18.7496 8.84 18.8936 8.696C19.0136 8.576 19.1176 8.492 19.2056 8.444C19.2936 8.388 19.3656 8.328 19.4216 8.264C19.5896 8.032 19.6776 7.856 19.6856 7.736C19.7016 7.616 19.7096 7.504 19.7096 7.4C19.6136 7.272 19.5256 7.208 19.4456 7.208C19.3976 7.208 19.3256 7.228 19.2296 7.268C19.0936 7.324 18.9816 7.376 18.8936 7.424C18.8136 7.472 18.6936 7.576 18.5336 7.736C18.3496 7.928 18.1816 8.116 18.0296 8.3C17.8776 8.476 17.7576 8.656 17.6696 8.84C17.6616 8.872 17.6496 8.904 17.6336 8.936C17.6256 8.96 17.6216 8.98 17.6216 8.996C17.6216 9.084 17.6616 9.148 17.7416 9.188C17.8216 9.228 17.9136 9.248 18.0176 9.248ZM21.2034 11C21.1314 10.984 21.0954 10.9 21.0954 10.748C21.0954 10.484 21.1714 10.2 21.3234 9.896C21.3714 9.84 21.4114 9.784 21.4434 9.728C21.4834 9.672 21.5034 9.608 21.5034 9.536C21.5034 9.488 21.5274 9.416 21.5754 9.32C21.6234 9.216 21.6754 9.108 21.7314 8.996C21.7954 8.876 21.8514 8.772 21.8994 8.684C21.9474 8.596 21.9714 8.544 21.9714 8.528C21.9874 8.488 22.0034 8.444 22.0194 8.396C22.0434 8.34 22.0554 8.312 22.0554 8.312C22.1354 8.192 22.2314 8.044 22.3434 7.868C22.4634 7.692 22.6034 7.488 22.7634 7.256H22.7514C22.8634 7.072 22.9634 6.916 23.0514 6.788C23.1474 6.652 23.2354 6.544 23.3154 6.464C23.5714 6.208 23.8634 6.08 24.1914 6.08C24.3914 6.08 24.4914 6.168 24.4914 6.344C24.4914 6.496 24.3994 6.652 24.2154 6.812C24.1434 6.876 24.0674 6.94 23.9874 7.004C23.9154 7.06 23.8474 7.12 23.7834 7.184C23.7194 7.256 23.6314 7.364 23.5194 7.508C23.4074 7.644 23.2754 7.816 23.1234 8.024C23.1074 8.048 23.0634 8.108 22.9914 8.204C22.9274 8.292 22.8594 8.392 22.7874 8.504C22.7234 8.608 22.6754 8.7 22.6434 8.78C22.6194 8.852 22.6354 8.884 22.6914 8.876C22.8034 8.716 23.0794 8.48 23.5194 8.168C23.7034 8.04 23.8554 7.912 23.9754 7.784C24.0954 7.656 24.2154 7.552 24.3354 7.472C24.3754 7.456 24.4194 7.432 24.4674 7.4C24.5154 7.368 24.5674 7.324 24.6234 7.268H24.6354C24.8514 7.156 25.0834 7.032 25.3314 6.896C25.5794 6.752 25.8394 6.592 26.1114 6.416C26.1354 6.4 26.1674 6.4 26.2074 6.416C26.5674 6.288 26.8154 6.224 26.9514 6.224C27.0874 6.224 27.1554 6.284 27.1554 6.404C27.1554 6.428 27.1434 6.488 27.1194 6.584C27.1034 6.68 27.0674 6.772 27.0114 6.86C26.9634 6.948 26.8914 6.992 26.7954 6.992H26.2674C26.0034 7.096 25.7194 7.208 25.4154 7.328C25.1194 7.44 24.8114 7.612 24.4914 7.844H24.4794C23.3034 8.62 22.4234 9.44 21.8394 10.304C21.8314 10.344 21.8154 10.392 21.7914 10.448C21.7674 10.504 21.7394 10.572 21.7074 10.652C21.5874 10.86 21.4194 10.976 21.2034 11ZM28.8719 5.888C28.7999 5.888 28.7519 5.864 28.7279 5.816C28.7119 5.76 28.6999 5.708 28.6919 5.66C28.6839 5.62 28.6759 5.576 28.6679 5.528C28.6599 5.48 28.6559 5.432 28.6559 5.384C28.6559 5.32 28.6639 5.264 28.6799 5.216C28.7039 5.16 28.7439 5.116 28.7999 5.084C28.9839 4.988 29.1399 4.92 29.2679 4.88C29.3959 4.84 29.4999 4.82 29.5799 4.82C29.6999 4.82 29.7799 4.856 29.8199 4.928C29.8599 5 29.8799 5.092 29.8799 5.204C29.8799 5.236 29.8799 5.268 29.8799 5.3C29.8799 5.324 29.8759 5.356 29.8679 5.396C29.8439 5.5 29.7639 5.572 29.6279 5.612C29.4999 5.652 29.3919 5.692 29.3039 5.732C29.2479 5.764 29.1799 5.8 29.0999 5.84C29.0279 5.872 28.9599 5.888 28.8959 5.888H28.8719ZM26.2559 11.06C26.2239 11.06 26.1959 11.036 26.1719 10.988C26.1559 10.924 26.1359 10.868 26.1119 10.82C26.0879 10.772 26.0759 10.7 26.0759 10.604C26.0759 10.492 26.0999 10.328 26.1479 10.112C26.1959 9.896 26.2879 9.572 26.4239 9.14C26.5279 8.812 26.6239 8.548 26.7119 8.348C26.7999 8.148 26.8919 7.956 26.9879 7.772V7.76C27.0119 7.728 27.0479 7.7 27.0959 7.676C27.1439 7.652 27.1759 7.628 27.1919 7.604H27.1799C27.1959 7.588 27.1999 7.564 27.1919 7.532C27.1839 7.492 27.1799 7.456 27.1799 7.424C27.1799 7.336 27.2079 7.264 27.2639 7.208C27.3279 7.144 27.3919 7.084 27.4559 7.028C27.5199 6.964 27.6199 6.892 27.7559 6.812C27.8919 6.732 28.0519 6.676 28.2359 6.644C28.2599 6.636 28.2839 6.632 28.3079 6.632C28.3319 6.632 28.3559 6.632 28.3799 6.632C28.5159 6.632 28.6199 6.66 28.6919 6.716C28.7639 6.772 28.8159 6.832 28.8479 6.896C28.8639 6.912 28.8799 6.932 28.8959 6.956C28.9119 6.98 28.9199 7.008 28.9199 7.04C28.9199 7.072 28.9039 7.116 28.8719 7.172C28.8479 7.22 28.7919 7.284 28.7039 7.364C28.6639 7.412 28.6039 7.464 28.5239 7.52C28.4519 7.568 28.3839 7.624 28.3199 7.688C28.2399 7.768 28.1639 7.856 28.0919 7.952C28.0199 8.048 27.9519 8.14 27.8879 8.228C27.8319 8.308 27.7719 8.384 27.7079 8.456C27.6439 8.52 27.5799 8.588 27.5159 8.66C27.4839 8.692 27.4599 8.752 27.4439 8.84C27.4279 8.92 27.3919 8.988 27.3359 9.044C27.2799 9.116 27.2159 9.172 27.1439 9.212C27.0799 9.252 27.0279 9.308 26.9879 9.38V9.368C26.9479 9.44 26.9039 9.524 26.8559 9.62C26.8079 9.716 26.7599 9.808 26.7119 9.896C26.6319 10.056 26.5799 10.176 26.5559 10.256C26.5319 10.328 26.5199 10.384 26.5199 10.424C26.5199 10.472 26.5279 10.504 26.5439 10.52C26.5679 10.536 26.5719 10.576 26.5559 10.64C26.5239 10.712 26.4799 10.8 26.4239 10.904C26.3759 11.008 26.3199 11.06 26.2559 11.06ZM29.4271 11.18C29.4031 11.18 29.3511 11.16 29.2711 11.12C29.1991 11.088 29.1231 11.052 29.0431 11.012C28.9711 10.98 28.9151 10.964 28.8751 10.964H28.8631C28.7591 10.964 28.6831 10.932 28.6351 10.868C28.5951 10.796 28.5671 10.712 28.5511 10.616C28.5351 10.52 28.5191 10.44 28.5031 10.376C28.4791 10.28 28.4671 10.18 28.4671 10.076C28.4671 9.716 28.5871 9.3 28.8271 8.828C29.0751 8.348 29.4031 7.876 29.8111 7.412C30.0991 7.084 30.3911 6.828 30.6871 6.644C30.9831 6.46 31.2511 6.356 31.4911 6.332C31.6191 6.316 31.7511 6.348 31.8871 6.428C32.0231 6.508 32.1191 6.548 32.1751 6.548H32.1871C32.4111 6.548 32.5631 6.624 32.6431 6.776C32.7231 6.92 32.7631 7.06 32.7631 7.196C32.7631 7.316 32.7351 7.432 32.6791 7.544C32.6231 7.624 32.5351 7.664 32.4151 7.664C32.2631 7.664 32.1631 7.62 32.1151 7.532C32.0591 7.404 31.9551 7.304 31.8031 7.232C31.6511 7.16 31.5071 7.124 31.3711 7.124C31.2351 7.124 31.0871 7.184 30.9271 7.304C30.7751 7.424 30.6191 7.568 30.4591 7.736C29.9711 8.24 29.6311 8.712 29.4391 9.152C29.2551 9.584 29.1631 9.924 29.1631 10.172C29.1631 10.204 29.1631 10.236 29.1631 10.268C29.1711 10.292 29.1751 10.316 29.1751 10.34V10.352C29.1751 10.408 29.2271 10.468 29.3311 10.532C29.4351 10.588 29.5511 10.608 29.6791 10.592C29.8951 10.568 30.0751 10.532 30.2191 10.484C30.3631 10.436 30.5471 10.348 30.7711 10.22C30.7791 10.22 30.8191 10.2 30.8911 10.16C30.9631 10.12 31.0351 10.08 31.1071 10.04C31.1871 9.992 31.2311 9.968 31.2391 9.968C31.3271 9.92 31.3751 9.896 31.3831 9.896C31.3991 9.896 31.4231 9.888 31.4551 9.872C31.4871 9.848 31.5711 9.792 31.7071 9.704C31.8511 9.608 31.9631 9.56 32.0431 9.56C32.0991 9.56 32.1271 9.58 32.1271 9.62C32.1271 9.652 32.0991 9.7 32.0431 9.764C31.9951 9.828 31.9071 9.904 31.7791 9.992C31.6191 10.096 31.4871 10.176 31.3831 10.232C31.2871 10.288 31.1991 10.344 31.1191 10.4C31.0391 10.448 30.9511 10.52 30.8551 10.616L30.8431 10.628C30.8271 10.628 30.7831 10.644 30.7111 10.676C30.6471 10.708 30.5831 10.74 30.5191 10.772C30.4551 10.796 30.4191 10.812 30.4111 10.82C30.3791 10.844 30.2951 10.888 30.1591 10.952C30.0311 11.008 29.8951 11.06 29.7511 11.108C29.6071 11.156 29.4991 11.18 29.4271 11.18ZM33.0863 11.084C33.0303 11.084 32.9823 11.08 32.9423 11.072C32.9103 11.064 32.8903 11.06 32.8823 11.06L32.8703 11.048C32.8463 11.024 32.8263 11.004 32.8103 10.988C32.8023 10.972 32.7863 10.956 32.7623 10.94C32.7303 10.916 32.6903 10.888 32.6423 10.856C32.5943 10.816 32.5703 10.732 32.5703 10.604C32.5703 10.492 32.5943 10.332 32.6423 10.124C32.6983 9.908 32.8023 9.62 32.9543 9.26H32.9663C33.0783 9.092 33.1703 8.92 33.2423 8.744C33.3223 8.56 33.4023 8.396 33.4823 8.252V8.276C33.4823 8.26 33.5263 8.184 33.6143 8.048C33.7023 7.904 33.8063 7.732 33.9263 7.532C34.0543 7.332 34.1823 7.132 34.3103 6.932C34.4383 6.732 34.5463 6.56 34.6343 6.416C34.7303 6.272 34.7823 6.192 34.7903 6.176V6.2C34.7983 6.16 34.8303 6.1 34.8863 6.02C34.9423 5.94 34.9743 5.896 34.9823 5.888H34.9703C35.0503 5.76 35.1023 5.664 35.1263 5.6C35.1583 5.528 35.1903 5.46 35.2223 5.396C35.2623 5.324 35.3303 5.228 35.4263 5.108C35.4663 5.044 35.5343 4.952 35.6303 4.832C35.7343 4.712 35.8103 4.624 35.8583 4.568C35.8983 4.528 35.9463 4.46 36.0023 4.364C36.0583 4.26 36.1183 4.192 36.1823 4.16C36.2943 4.104 36.4303 4.052 36.5903 4.004C36.7503 3.956 36.8943 3.932 37.0223 3.932C37.2223 3.932 37.3343 4 37.3583 4.136C37.3583 4.408 37.1943 4.7 36.8663 5.012C36.7863 5.092 36.6823 5.176 36.5543 5.264C36.4263 5.352 36.3303 5.44 36.2663 5.528H36.2783C36.1903 5.656 36.0743 5.776 35.9303 5.888C35.7943 6 35.6903 6.1 35.6183 6.188C35.5623 6.268 35.4903 6.336 35.4023 6.392C35.3143 6.44 35.2463 6.496 35.1983 6.56C34.8383 7.048 34.5583 7.464 34.3583 7.808C34.1583 8.144 34.0343 8.356 33.9863 8.444C33.9543 8.5 33.9103 8.588 33.8543 8.708C33.8063 8.82 33.7583 8.936 33.7103 9.056C33.6623 9.168 33.6263 9.252 33.6023 9.308C33.5623 9.436 33.5223 9.524 33.4823 9.572C33.4423 9.612 33.4143 9.668 33.3983 9.74C33.4143 9.74 33.4423 9.76 33.4823 9.8C33.5223 9.832 33.5543 9.836 33.5783 9.812L33.9983 9.5C34.1103 9.412 34.1983 9.332 34.2623 9.26C34.3263 9.188 34.4543 9.064 34.6463 8.888C34.6703 8.872 34.7183 8.832 34.7903 8.768C34.8623 8.704 34.9383 8.632 35.0183 8.552C35.0823 8.424 35.1503 8.296 35.2223 8.168C35.2943 8.032 35.3823 7.904 35.4863 7.784C35.7183 7.504 35.9663 7.288 36.2303 7.136C36.5023 6.976 36.7503 6.884 36.9743 6.86C37.0943 6.86 37.2223 6.864 37.3583 6.872C37.5023 6.872 37.6143 6.888 37.6943 6.92C37.8063 6.976 37.8783 7.04 37.9103 7.112C37.9423 7.184 37.9583 7.252 37.9583 7.316C37.9583 7.404 37.9463 7.468 37.9223 7.508C37.8903 7.556 37.8503 7.6 37.8023 7.64C37.7543 7.68 37.6783 7.7 37.5743 7.7C37.5183 7.684 37.4623 7.648 37.4063 7.592C37.3583 7.536 37.2543 7.508 37.0943 7.508C37.0223 7.54 36.9543 7.576 36.8903 7.616C36.8343 7.648 36.7623 7.692 36.6743 7.748V7.76C36.5623 7.832 36.4623 7.9 36.3743 7.964C36.2943 8.028 36.2223 8.088 36.1583 8.144C36.1263 8.176 36.0703 8.216 35.9903 8.264C35.9183 8.312 35.8343 8.368 35.7383 8.432H35.7503C35.6463 8.584 35.5743 8.74 35.5343 8.9C35.4943 9.052 35.4743 9.196 35.4743 9.332C35.4743 9.548 35.5103 9.74 35.5823 9.908C35.6623 10.068 35.7463 10.188 35.8343 10.268C35.8823 10.3 35.9503 10.344 36.0383 10.4C36.1343 10.456 36.2463 10.484 36.3743 10.484C36.5903 10.484 36.7663 10.46 36.9023 10.412C37.0383 10.356 37.2143 10.276 37.4303 10.172H37.4423C37.4343 10.164 37.4703 10.172 37.5503 10.196C37.6303 10.22 37.6703 10.264 37.6703 10.328C37.6703 10.368 37.6303 10.428 37.5503 10.508L37.5383 10.52L37.1423 10.7C37.1103 10.724 37.0303 10.76 36.9023 10.808C36.7823 10.856 36.6583 10.9 36.5303 10.94C36.4023 10.98 36.3063 11 36.2423 11C36.2183 11 36.1663 10.984 36.0863 10.952C36.0063 10.92 35.9223 10.888 35.8343 10.856C35.7543 10.824 35.6903 10.808 35.6423 10.808C35.5303 10.792 35.4503 10.752 35.4023 10.688C35.3543 10.624 35.3183 10.556 35.2943 10.484C35.2703 10.412 35.2343 10.356 35.1863 10.316C34.9543 10.1 34.8383 9.804 34.8383 9.428C34.8383 9.38 34.8383 9.336 34.8383 9.296C34.8463 9.248 34.8543 9.2 34.8623 9.152C34.7983 9.208 34.7383 9.264 34.6823 9.32C34.6263 9.368 34.5903 9.4 34.5743 9.416L34.4423 9.5C34.3303 9.628 34.2303 9.752 34.1423 9.872C34.0543 9.984 33.9583 10.1 33.8543 10.22H33.8303C33.8303 10.212 33.7983 10.252 33.7343 10.34C33.6703 10.42 33.6383 10.46 33.6383 10.46C33.6223 10.484 33.5903 10.54 33.5423 10.628C33.4943 10.716 33.4423 10.804 33.3863 10.892C33.3383 10.972 33.2983 11.024 33.2663 11.048C33.2183 11.072 33.1583 11.084 33.0863 11.084ZM41.2199 11.252C40.9239 11.252 40.6319 11.216 40.3439 11.144C40.0639 11.072 39.8079 10.948 39.5759 10.772C39.3759 10.604 39.2319 10.364 39.1439 10.052C39.0639 9.74 39.0239 9.436 39.0239 9.14C39.0239 9.012 39.0319 8.892 39.0479 8.78C39.0639 8.66 39.0799 8.56 39.0959 8.48C39.2319 7.888 39.4799 7.336 39.8399 6.824C40.2079 6.304 40.6759 5.784 41.2439 5.264C41.3079 5.2 41.3719 5.14 41.4359 5.084C41.4999 5.028 41.5639 4.972 41.6279 4.916C41.6679 4.892 41.7079 4.88 41.7479 4.88C41.7879 4.872 41.8239 4.868 41.8559 4.868C41.8959 4.868 41.9319 4.868 41.9639 4.868C41.9959 4.86 42.0199 4.848 42.0359 4.832C42.0759 4.808 42.0999 4.752 42.1079 4.664C42.1239 4.576 42.1559 4.512 42.2039 4.472C42.4359 4.304 42.7079 4.164 43.0199 4.052C43.3319 3.94 43.6199 3.832 43.8839 3.728C44.1079 3.64 44.3799 3.572 44.6999 3.524C45.0279 3.476 45.3439 3.452 45.6479 3.452C45.9599 3.452 46.2159 3.476 46.4159 3.524C46.5919 3.564 46.7079 3.628 46.7639 3.716C46.8279 3.796 46.8679 3.884 46.8839 3.98C46.8999 4.076 46.9199 4.168 46.9439 4.256C46.9519 4.28 46.9559 4.304 46.9559 4.328C46.9639 4.352 46.9679 4.376 46.9679 4.4C46.9679 4.528 46.9279 4.644 46.8479 4.748C46.7679 4.852 46.6879 4.9 46.6079 4.892C46.6639 4.924 46.7119 4.964 46.7519 5.012C46.7999 5.06 46.8439 5.112 46.8839 5.168C46.9479 5.248 47.0199 5.336 47.0999 5.432C47.1799 5.52 47.2359 5.624 47.2679 5.744V5.756C47.2679 5.804 47.2639 5.86 47.2559 5.924C47.2559 5.988 47.2559 6.048 47.2559 6.104C47.2479 6.12 47.2599 6.14 47.2919 6.164C47.3319 6.18 47.3559 6.216 47.3639 6.272C47.3639 6.536 47.3239 6.824 47.2439 7.136C47.1639 7.44 47.0319 7.756 46.8479 8.084C46.6159 8.5 46.3519 8.856 46.0559 9.152C45.7679 9.448 45.4799 9.696 45.1919 9.896C44.9119 10.088 44.6679 10.252 44.4599 10.388H44.4359C44.4279 10.38 44.4079 10.392 44.3759 10.424C44.3519 10.448 44.3319 10.444 44.3159 10.412C44.2599 10.42 44.2279 10.42 44.2199 10.412C44.2119 10.404 44.1999 10.42 44.1839 10.46C44.1279 10.564 44.0399 10.616 43.9199 10.616C43.8079 10.608 43.7119 10.624 43.6319 10.664C43.5279 10.696 43.4319 10.748 43.3439 10.82C43.2559 10.884 43.1559 10.932 43.0439 10.964C42.9159 10.996 42.6799 11.052 42.3359 11.132C41.9919 11.212 41.6199 11.252 41.2199 11.252ZM41.4119 10.844C41.6039 10.844 41.7799 10.832 41.9399 10.808C42.1079 10.776 42.2279 10.76 42.2999 10.76H42.3119C42.3439 10.76 42.3959 10.74 42.4679 10.7C42.5479 10.66 42.6279 10.62 42.7079 10.58C42.7959 10.54 42.8639 10.52 42.9119 10.52C42.9759 10.52 43.0599 10.504 43.1639 10.472C43.2679 10.44 43.3599 10.408 43.4399 10.376C43.8319 10.232 44.1479 10.06 44.3879 9.86C44.6279 9.66 44.8719 9.46 45.1199 9.26C45.1839 9.204 45.2479 9.152 45.3119 9.104C45.3759 9.056 45.4279 9.016 45.4679 8.984C45.5719 8.848 45.6999 8.696 45.8519 8.528C46.0039 8.36 46.1439 8.152 46.2719 7.904C46.4159 7.632 46.5079 7.396 46.5479 7.196C46.5959 6.996 46.6199 6.796 46.6199 6.596C46.6199 6.508 46.6239 6.424 46.6319 6.344C46.6479 6.256 46.6559 6.176 46.6559 6.104C46.6559 6.08 46.6439 6.024 46.6199 5.936C46.5959 5.848 46.5839 5.788 46.5839 5.756C46.5839 5.732 46.5639 5.708 46.5239 5.684C46.4919 5.652 46.4599 5.616 46.4279 5.576C46.3079 5.352 46.1519 5.18 45.9599 5.06C45.7679 4.94 45.5639 4.88 45.3479 4.88C45.0759 4.88 44.8359 4.94 44.6279 5.06C44.5959 5.084 44.5599 5.1 44.5199 5.108C44.4879 5.116 44.4599 5.12 44.4359 5.12C44.3639 5.12 44.3279 5.092 44.3279 5.036C44.3279 4.956 44.4199 4.86 44.6039 4.748C44.7959 4.636 45.1239 4.58 45.5879 4.58C45.7479 4.58 45.8999 4.596 46.0439 4.628C46.1959 4.652 46.3359 4.704 46.4639 4.784L46.4279 4.712V4.7C46.4279 4.66 46.3999 4.612 46.3439 4.556C46.2959 4.5 46.2719 4.444 46.2719 4.388C46.2719 4.388 46.2199 4.352 46.1159 4.28C46.0199 4.208 45.9079 4.172 45.7799 4.172H45.7679C45.6959 4.172 45.6159 4.164 45.5279 4.148C45.4399 4.132 45.3439 4.124 45.2399 4.124C45.0879 4.124 44.9239 4.14 44.7479 4.172C44.5719 4.204 44.3839 4.264 44.1839 4.352C43.5679 4.624 42.9759 4.924 42.4079 5.252C41.8479 5.572 41.3799 5.944 41.0039 6.368C40.9559 6.432 40.9239 6.476 40.9079 6.5C40.8999 6.524 40.8679 6.572 40.8119 6.644C40.7719 6.692 40.7119 6.76 40.6319 6.848C40.5519 6.936 40.4959 7.004 40.4639 7.052C40.3439 7.22 40.2519 7.404 40.1879 7.604C40.1239 7.796 40.0719 7.984 40.0319 8.168C39.9919 8.352 39.9439 8.504 39.8879 8.624C39.8399 8.728 39.8039 8.836 39.7799 8.948C39.7639 9.052 39.7559 9.16 39.7559 9.272C39.7559 9.464 39.7799 9.648 39.8279 9.824C39.8839 10 39.9439 10.148 40.0079 10.268C40.1359 10.5 40.3319 10.656 40.5959 10.736C40.8679 10.808 41.1399 10.844 41.4119 10.844ZM47.1253 11C47.0533 10.976 47.0173 10.892 47.0173 10.748C47.0173 10.66 47.0293 10.56 47.0533 10.448C47.0853 10.336 47.1293 10.204 47.1853 10.052V10.088C47.2013 10.088 47.2173 10.06 47.2333 10.004C47.2493 9.948 47.2533 9.916 47.2453 9.908C47.2533 9.86 47.2853 9.808 47.3413 9.752C47.4053 9.688 47.4333 9.652 47.4253 9.644V9.632C47.4413 9.6 47.4413 9.58 47.4253 9.572C47.4093 9.564 47.4133 9.532 47.4373 9.476C47.5253 9.292 47.6053 9.124 47.6773 8.972C47.7493 8.812 47.8213 8.668 47.8933 8.54C47.8933 8.54 47.9013 8.512 47.9173 8.456C47.9333 8.4 47.9533 8.348 47.9773 8.3V8.324C47.9853 8.292 48.0053 8.264 48.0373 8.24C48.0693 8.208 48.0893 8.188 48.0973 8.18C48.1373 8.108 48.1573 8.056 48.1573 8.024C48.1573 8.008 48.1533 8 48.1453 8C48.1373 8 48.1333 7.996 48.1333 7.988C48.1333 7.98 48.1413 7.964 48.1573 7.94C48.1733 7.908 48.2053 7.86 48.2533 7.796H48.2413C48.2733 7.756 48.3213 7.684 48.3853 7.58C48.4573 7.476 48.5253 7.372 48.5893 7.268C48.6613 7.164 48.7053 7.096 48.7213 7.064C48.7853 6.928 48.8853 6.828 49.0213 6.764C49.1653 6.692 49.3053 6.656 49.4413 6.656C49.5693 6.656 49.6773 6.688 49.7653 6.752C49.8613 6.808 49.9093 6.904 49.9093 7.04C49.9093 7.168 49.8773 7.256 49.8133 7.304C49.7573 7.352 49.6773 7.404 49.5733 7.46C49.4773 7.508 49.3693 7.596 49.2493 7.724C49.0173 7.972 48.8613 8.176 48.7813 8.336C48.7013 8.488 48.6533 8.648 48.6373 8.816C48.6693 8.776 48.7053 8.74 48.7453 8.708C48.9133 8.54 49.1013 8.388 49.3093 8.252C49.5253 8.108 49.7973 7.936 50.1253 7.736H50.1493C50.1573 7.736 50.2093 7.7 50.3053 7.628C50.4093 7.556 50.5133 7.484 50.6173 7.412C50.7293 7.332 50.7973 7.292 50.8213 7.292C50.8213 7.292 50.8693 7.268 50.9653 7.22C51.0613 7.172 51.1613 7.132 51.2653 7.1C51.6173 6.98 51.9213 6.92 52.1773 6.92C52.3613 6.92 52.4973 6.952 52.5853 7.016C52.6573 7.064 52.6933 7.16 52.6933 7.304C52.6933 7.408 52.6693 7.528 52.6213 7.664V7.64C52.6133 7.64 52.5973 7.672 52.5733 7.736C52.5493 7.792 52.5253 7.84 52.5013 7.88C52.4853 7.904 52.4573 7.948 52.4173 8.012C52.3773 8.076 52.3533 8.116 52.3453 8.132V8.12C52.2973 8.208 52.2533 8.276 52.2133 8.324C52.1733 8.364 52.1253 8.42 52.0693 8.492C51.9893 8.588 51.8813 8.736 51.7453 8.936C51.6093 9.128 51.4773 9.336 51.3493 9.56C51.2293 9.776 51.1493 9.972 51.1093 10.148C51.1013 10.196 51.0853 10.252 51.0613 10.316C51.0453 10.372 51.0413 10.42 51.0493 10.46V10.472C51.0493 10.488 51.0653 10.512 51.0973 10.544C51.1293 10.568 51.1493 10.588 51.1573 10.604C51.1893 10.636 51.2053 10.672 51.2053 10.712C51.2053 10.76 51.1773 10.804 51.1213 10.844C51.0733 10.876 50.9813 10.884 50.8453 10.868C50.7573 10.868 50.6973 10.844 50.6653 10.796C50.6413 10.748 50.6133 10.696 50.5813 10.64V10.628C50.5813 10.612 50.5773 10.596 50.5693 10.58C50.5693 10.564 50.5693 10.54 50.5693 10.508C50.5773 10.492 50.5653 10.484 50.5333 10.484C50.5093 10.476 50.4813 10.444 50.4493 10.388C50.4493 10.388 50.4453 10.348 50.4373 10.268C50.4293 10.188 50.4253 10.132 50.4253 10.1C50.4253 10.02 50.4533 9.924 50.5093 9.812C50.5653 9.692 50.6093 9.588 50.6413 9.5C50.6813 9.412 50.7653 9.284 50.8933 9.116C51.0213 8.948 51.1533 8.776 51.2893 8.6C51.4333 8.416 51.5413 8.264 51.6133 8.144C51.6933 8.008 51.7333 7.888 51.7333 7.784C51.7333 7.688 51.7053 7.62 51.6493 7.58C51.5933 7.532 51.5293 7.508 51.4573 7.508C51.4173 7.508 51.3573 7.512 51.2773 7.52C51.2053 7.528 51.1333 7.548 51.0613 7.58C51.0293 7.588 50.9733 7.62 50.8933 7.676C50.8213 7.732 50.7493 7.784 50.6773 7.832C50.6053 7.88 50.5573 7.904 50.5333 7.904C50.4773 7.944 50.4253 7.984 50.3773 8.024C50.3293 8.056 50.2653 8.096 50.1853 8.144L49.8133 8.384C49.4133 8.64 49.0333 8.936 48.6733 9.272C48.3213 9.608 48.0173 9.952 47.7613 10.304C47.7293 10.344 47.7053 10.4 47.6893 10.472C47.6733 10.544 47.6533 10.604 47.6293 10.652C47.5973 10.708 47.5653 10.748 47.5333 10.772C47.5013 10.788 47.4773 10.804 47.4613 10.82C47.3973 10.9 47.3333 10.952 47.2693 10.976C47.2133 10.992 47.1653 11 47.1253 11ZM52.0292 15.488C51.7652 15.488 51.5572 15.396 51.4052 15.212C51.2452 15.036 51.1332 14.824 51.0692 14.576C50.9972 14.336 50.9612 14.12 50.9612 13.928C51.0012 13.744 51.0332 13.596 51.0572 13.484C51.0732 13.38 51.1452 13.248 51.2732 13.088C51.3292 13.032 51.3732 13.004 51.4052 13.004C51.4452 13.004 51.4652 13.044 51.4652 13.124C51.4572 13.204 51.4532 13.292 51.4532 13.388C51.4532 13.508 51.4532 13.664 51.4532 13.856C51.4532 14.048 51.4692 14.24 51.5012 14.432C51.5252 14.632 51.5812 14.796 51.6692 14.924C51.7492 15.06 51.8692 15.128 52.0292 15.128C52.3332 15.128 52.6012 15.048 52.8332 14.888C53.0732 14.736 53.2892 14.536 53.4812 14.288C53.6732 14.048 53.8532 13.796 54.0212 13.532C54.0852 13.436 54.1572 13.348 54.2372 13.268C54.3172 13.188 54.3852 13.104 54.4412 13.016C54.5052 12.92 54.5532 12.82 54.5852 12.716C54.6252 12.612 54.6732 12.52 54.7292 12.44C54.9772 12.096 55.1812 11.716 55.3412 11.3C55.5012 10.884 55.6892 10.476 55.9052 10.076C55.9452 9.948 56.0052 9.8 56.0852 9.632C56.1732 9.424 56.2292 9.276 56.2532 9.188C56.2852 9.1 56.3012 9.04 56.3012 9.008C56.3012 8.968 56.3012 8.932 56.3012 8.9C56.2212 8.956 56.1572 8.996 56.1092 9.02C56.0692 9.036 56.0212 9.06 55.9652 9.092C55.9092 9.124 55.8212 9.2 55.7012 9.32L55.6892 9.332C55.6812 9.324 55.6532 9.344 55.6052 9.392C55.5652 9.44 55.5292 9.472 55.4972 9.488C55.4492 9.52 55.3732 9.588 55.2692 9.692C55.1652 9.788 55.0932 9.852 55.0532 9.884C54.7812 10.084 54.5532 10.256 54.3692 10.4C54.1852 10.544 53.9652 10.684 53.7092 10.82L53.6372 10.904L53.6132 10.916C53.5972 10.916 53.5572 10.92 53.4932 10.928C53.4372 10.936 53.4252 10.94 53.4572 10.94H53.4692C53.4132 10.972 53.3572 10.996 53.3012 11.012C53.2532 11.036 53.2092 11.06 53.1692 11.084C53.0652 11.124 52.9692 11.144 52.8812 11.144C52.7852 11.144 52.7012 11.116 52.6292 11.06C52.5652 11.004 52.5332 10.916 52.5332 10.796C52.5332 10.764 52.5372 10.732 52.5452 10.7C52.5452 10.668 52.5492 10.636 52.5572 10.604C52.6292 10.34 52.7452 10.028 52.9052 9.668C53.0732 9.308 53.2972 8.924 53.5772 8.516C53.8572 8.108 54.2052 7.708 54.6212 7.316C54.8612 7.084 55.1092 6.896 55.3652 6.752C55.6292 6.608 55.8972 6.52 56.1692 6.488C56.1852 6.488 56.2132 6.48 56.2532 6.464C56.2932 6.448 56.3292 6.44 56.3612 6.44C56.4252 6.44 56.4852 6.452 56.5412 6.476C56.6052 6.5 56.6692 6.512 56.7332 6.512C56.7332 6.512 56.7772 6.536 56.8652 6.584C56.9532 6.624 57.0532 6.68 57.1652 6.752C57.2772 6.824 57.3732 6.9 57.4532 6.98C57.5412 7.052 57.5852 7.124 57.5852 7.196C57.5852 7.276 57.5532 7.348 57.4892 7.412C57.4332 7.476 57.3972 7.524 57.3812 7.556C57.3572 7.588 57.3172 7.604 57.2612 7.604C57.1412 7.604 57.0732 7.544 57.0572 7.424C57.0572 7.344 57.0412 7.276 57.0092 7.22C56.9852 7.164 56.9532 7.116 56.9132 7.076C56.8972 7.06 56.8372 7.044 56.7332 7.028C56.6292 7.012 56.5572 7.004 56.5172 7.004C56.3652 7.004 56.1852 7.064 55.9772 7.184C55.7772 7.304 55.5612 7.468 55.3292 7.676C55.2252 7.764 55.1252 7.832 55.0292 7.88C54.9412 7.928 54.8612 7.988 54.7892 8.06C54.7572 8.092 54.7252 8.144 54.6932 8.216C54.6692 8.28 54.6372 8.332 54.5972 8.372C54.3092 8.676 54.0892 8.948 53.9372 9.188C53.7852 9.42 53.6772 9.624 53.6132 9.8C53.5572 9.976 53.5092 10.136 53.4692 10.28C53.4692 10.344 53.4892 10.376 53.5292 10.376H53.6492C53.7852 10.336 53.9452 10.256 54.1292 10.136C54.3132 10.008 54.4972 9.872 54.6812 9.728C54.8732 9.576 55.0372 9.448 55.1732 9.344C55.2132 9.304 55.2532 9.276 55.2932 9.26C55.3412 9.244 55.3772 9.224 55.4012 9.2C55.4412 9.168 55.4732 9.136 55.4972 9.104C55.5292 9.072 55.5612 9.044 55.5932 9.02C55.8332 8.836 56.0092 8.7 56.1212 8.612C56.2412 8.524 56.3252 8.464 56.3732 8.432C56.4212 8.392 56.4612 8.364 56.4932 8.348C56.5252 8.324 56.5692 8.288 56.6252 8.24C56.7212 8.168 56.8052 8.132 56.8772 8.132C56.9652 8.132 57.0332 8.168 57.0812 8.24C57.1372 8.304 57.1692 8.368 57.1772 8.432C57.1932 8.496 57.2012 8.556 57.2012 8.612C57.2012 8.708 57.1852 8.788 57.1532 8.852C57.1132 8.9 57.0932 8.944 57.0932 8.984C57.0932 9 57.0972 9.016 57.1052 9.032C57.1132 9.048 57.1172 9.068 57.1172 9.092C57.1172 9.116 57.1092 9.152 57.0932 9.2C57.0772 9.24 57.0412 9.304 56.9852 9.392V9.38C56.9452 9.46 56.9172 9.52 56.9012 9.56C56.8852 9.592 56.8572 9.64 56.8172 9.704C56.7532 9.904 56.6652 10.096 56.5532 10.28C56.4412 10.464 56.3172 10.672 56.1812 10.904C56.0772 11.176 55.9652 11.444 55.8452 11.708C55.7252 11.98 55.5732 12.248 55.3892 12.512C55.2052 12.768 54.9972 13.064 54.7652 13.4C54.5412 13.744 54.2892 14.072 54.0092 14.384C53.7372 14.704 53.4332 14.968 53.0972 15.176C52.7692 15.384 52.4132 15.488 52.0292 15.488ZM58.9754 11.312C58.9514 11.312 58.8994 11.296 58.8194 11.264C58.7394 11.24 58.6554 11.216 58.5674 11.192C58.4794 11.168 58.4154 11.156 58.3754 11.156H58.3634C58.2114 11.156 58.0954 11.096 58.0154 10.976C57.9434 10.848 57.8954 10.732 57.8714 10.628C57.8634 10.588 57.8554 10.548 57.8474 10.508C57.8474 10.46 57.8474 10.412 57.8474 10.364C57.8474 10.1 57.9114 9.8 58.0394 9.464C58.1674 9.128 58.3394 8.78 58.5554 8.42C58.7794 8.06 59.0314 7.724 59.3114 7.412C59.5994 7.084 59.8914 6.828 60.1874 6.644C60.4834 6.46 60.7514 6.356 60.9914 6.332C61.1194 6.332 61.2514 6.368 61.3874 6.44C61.5234 6.512 61.6194 6.548 61.6754 6.548H61.6874C61.8554 6.548 61.9674 6.616 62.0234 6.752C62.0794 6.888 62.1074 7.024 62.1074 7.16C62.1074 7.24 62.0914 7.324 62.0594 7.412C62.0274 7.5 61.9994 7.572 61.9754 7.628C61.9594 7.684 61.9594 7.704 61.9754 7.688L61.9874 7.676C61.8994 7.836 61.7994 8 61.6874 8.168C61.5834 8.328 61.4114 8.54 61.1714 8.804C61.0754 8.908 60.9434 9.012 60.7754 9.116C60.6154 9.212 60.4594 9.3 60.3074 9.38C60.1554 9.46 60.0474 9.516 59.9834 9.548C59.9194 9.58 59.8354 9.596 59.7314 9.596C59.6274 9.596 59.5114 9.584 59.3834 9.56C59.2634 9.536 59.1594 9.524 59.0714 9.524C59.0234 9.524 58.9794 9.528 58.9394 9.536C58.8994 9.544 58.8714 9.568 58.8554 9.608C58.7274 9.816 58.6634 10.024 58.6634 10.232C58.6634 10.36 58.6914 10.468 58.7474 10.556C58.8114 10.636 58.9154 10.676 59.0594 10.676C59.1074 10.676 59.1594 10.672 59.2154 10.664C59.2714 10.656 59.3274 10.64 59.3834 10.616C59.5194 10.592 59.6154 10.58 59.6714 10.58C59.7274 10.58 59.7874 10.572 59.8514 10.556C59.9234 10.54 60.0394 10.5 60.1994 10.436C60.3754 10.364 60.5074 10.312 60.5954 10.28C60.6914 10.248 60.7634 10.22 60.8114 10.196C60.8674 10.172 60.9234 10.144 60.9794 10.112C61.0354 10.08 61.1234 10.032 61.2434 9.968C61.3314 9.92 61.3794 9.896 61.3874 9.896C61.4034 9.896 61.4274 9.888 61.4594 9.872C61.4914 9.848 61.5754 9.792 61.7114 9.704C61.8554 9.608 61.9674 9.56 62.0474 9.56C62.1034 9.56 62.1314 9.58 62.1314 9.62C62.1314 9.652 62.1034 9.7 62.0474 9.764C61.9994 9.828 61.9114 9.904 61.7834 9.992C61.6474 10.088 61.4914 10.2 61.3154 10.328C61.1474 10.456 60.9914 10.556 60.8474 10.628C60.7994 10.636 60.7554 10.656 60.7154 10.688C60.6834 10.712 60.6354 10.732 60.5714 10.748L59.8994 11.036L59.9114 11.024C59.9354 11 59.9074 11 59.8274 11.024C59.7554 11.048 59.6594 11.084 59.5394 11.132C59.4274 11.18 59.3154 11.22 59.2034 11.252C59.0994 11.292 59.0234 11.312 58.9754 11.312ZM59.4434 9.248C59.4754 9.248 59.5074 9.248 59.5394 9.248C59.5714 9.24 59.6034 9.232 59.6354 9.224C59.6914 9.176 59.7434 9.14 59.7914 9.116C59.8394 9.092 59.9034 9.052 59.9834 8.996C60.0634 8.94 60.1754 8.84 60.3194 8.696C60.4394 8.576 60.5434 8.492 60.6314 8.444C60.7194 8.388 60.7914 8.328 60.8474 8.264C61.0154 8.032 61.1034 7.856 61.1114 7.736C61.1274 7.616 61.1354 7.504 61.1354 7.4C61.0394 7.272 60.9514 7.208 60.8714 7.208C60.8234 7.208 60.7514 7.228 60.6554 7.268C60.5194 7.324 60.4074 7.376 60.3194 7.424C60.2394 7.472 60.1194 7.576 59.9594 7.736C59.7754 7.928 59.6074 8.116 59.4554 8.3C59.3034 8.476 59.1834 8.656 59.0954 8.84C59.0874 8.872 59.0754 8.904 59.0594 8.936C59.0514 8.96 59.0474 8.98 59.0474 8.996C59.0474 9.084 59.0874 9.148 59.1674 9.188C59.2474 9.228 59.3394 9.248 59.4434 9.248ZM62.6292 11C62.5572 10.984 62.5212 10.9 62.5212 10.748C62.5212 10.484 62.5972 10.2 62.7492 9.896C62.7972 9.84 62.8372 9.784 62.8692 9.728C62.9092 9.672 62.9292 9.608 62.9292 9.536C62.9292 9.488 62.9532 9.416 63.0012 9.32C63.0492 9.216 63.1012 9.108 63.1572 8.996C63.2212 8.876 63.2772 8.772 63.3252 8.684C63.3732 8.596 63.3972 8.544 63.3972 8.528C63.4132 8.488 63.4292 8.444 63.4452 8.396C63.4692 8.34 63.4812 8.312 63.4812 8.312C63.5612 8.192 63.6572 8.044 63.7692 7.868C63.8892 7.692 64.0292 7.488 64.1892 7.256H64.1772C64.2892 7.072 64.3892 6.916 64.4772 6.788C64.5732 6.652 64.6612 6.544 64.7412 6.464C64.9972 6.208 65.2892 6.08 65.6172 6.08C65.8172 6.08 65.9172 6.168 65.9172 6.344C65.9172 6.496 65.8252 6.652 65.6412 6.812C65.5692 6.876 65.4932 6.94 65.4132 7.004C65.3412 7.06 65.2732 7.12 65.2092 7.184C65.1452 7.256 65.0572 7.364 64.9452 7.508C64.8332 7.644 64.7012 7.816 64.5492 8.024C64.5332 8.048 64.4892 8.108 64.4172 8.204C64.3532 8.292 64.2852 8.392 64.2132 8.504C64.1492 8.608 64.1012 8.7 64.0692 8.78C64.0452 8.852 64.0612 8.884 64.1172 8.876C64.2292 8.716 64.5052 8.48 64.9452 8.168C65.1292 8.04 65.2812 7.912 65.4012 7.784C65.5212 7.656 65.6412 7.552 65.7612 7.472C65.8012 7.456 65.8452 7.432 65.8932 7.4C65.9412 7.368 65.9932 7.324 66.0492 7.268H66.0612C66.2772 7.156 66.5092 7.032 66.7572 6.896C67.0052 6.752 67.2652 6.592 67.5372 6.416C67.5612 6.4 67.5932 6.4 67.6332 6.416C67.9932 6.288 68.2412 6.224 68.3772 6.224C68.5132 6.224 68.5812 6.284 68.5812 6.404C68.5812 6.428 68.5692 6.488 68.5452 6.584C68.5292 6.68 68.4932 6.772 68.4372 6.86C68.3892 6.948 68.3172 6.992 68.2212 6.992H67.6932C67.4292 7.096 67.1452 7.208 66.8412 7.328C66.5452 7.44 66.2372 7.612 65.9172 7.844H65.9052C64.7292 8.62 63.8492 9.44 63.2652 10.304C63.2572 10.344 63.2412 10.392 63.2172 10.448C63.1932 10.504 63.1652 10.572 63.1332 10.652C63.0132 10.86 62.8452 10.976 62.6292 11ZM70.2977 5.888C70.2257 5.888 70.1777 5.864 70.1537 5.816C70.1377 5.76 70.1257 5.708 70.1177 5.66C70.1097 5.62 70.1017 5.576 70.0937 5.528C70.0857 5.48 70.0817 5.432 70.0817 5.384C70.0817 5.32 70.0897 5.264 70.1057 5.216C70.1297 5.16 70.1697 5.116 70.2257 5.084C70.4097 4.988 70.5657 4.92 70.6937 4.88C70.8217 4.84 70.9257 4.82 71.0057 4.82C71.1257 4.82 71.2057 4.856 71.2457 4.928C71.2857 5 71.3057 5.092 71.3057 5.204C71.3057 5.236 71.3057 5.268 71.3057 5.3C71.3057 5.324 71.3017 5.356 71.2937 5.396C71.2697 5.5 71.1897 5.572 71.0537 5.612C70.9257 5.652 70.8177 5.692 70.7297 5.732C70.6737 5.764 70.6057 5.8 70.5257 5.84C70.4537 5.872 70.3857 5.888 70.3217 5.888H70.2977ZM67.6817 11.06C67.6497 11.06 67.6217 11.036 67.5977 10.988C67.5817 10.924 67.5617 10.868 67.5377 10.82C67.5137 10.772 67.5017 10.7 67.5017 10.604C67.5017 10.492 67.5257 10.328 67.5737 10.112C67.6217 9.896 67.7137 9.572 67.8497 9.14C67.9537 8.812 68.0497 8.548 68.1377 8.348C68.2257 8.148 68.3177 7.956 68.4137 7.772V7.76C68.4377 7.728 68.4737 7.7 68.5217 7.676C68.5697 7.652 68.6017 7.628 68.6177 7.604H68.6057C68.6217 7.588 68.6257 7.564 68.6177 7.532C68.6097 7.492 68.6057 7.456 68.6057 7.424C68.6057 7.336 68.6337 7.264 68.6897 7.208C68.7537 7.144 68.8177 7.084 68.8817 7.028C68.9457 6.964 69.0457 6.892 69.1817 6.812C69.3177 6.732 69.4777 6.676 69.6617 6.644C69.6857 6.636 69.7097 6.632 69.7337 6.632C69.7577 6.632 69.7817 6.632 69.8057 6.632C69.9417 6.632 70.0457 6.66 70.1177 6.716C70.1897 6.772 70.2417 6.832 70.2737 6.896C70.2897 6.912 70.3057 6.932 70.3217 6.956C70.3377 6.98 70.3457 7.008 70.3457 7.04C70.3457 7.072 70.3297 7.116 70.2977 7.172C70.2737 7.22 70.2177 7.284 70.1297 7.364C70.0897 7.412 70.0297 7.464 69.9497 7.52C69.8777 7.568 69.8097 7.624 69.7457 7.688C69.6657 7.768 69.5897 7.856 69.5177 7.952C69.4457 8.048 69.3777 8.14 69.3137 8.228C69.2577 8.308 69.1977 8.384 69.1337 8.456C69.0697 8.52 69.0057 8.588 68.9417 8.66C68.9097 8.692 68.8857 8.752 68.8697 8.84C68.8537 8.92 68.8177 8.988 68.7617 9.044C68.7057 9.116 68.6417 9.172 68.5697 9.212C68.5057 9.252 68.4537 9.308 68.4137 9.38V9.368C68.3737 9.44 68.3297 9.524 68.2817 9.62C68.2337 9.716 68.1857 9.808 68.1377 9.896C68.0577 10.056 68.0057 10.176 67.9817 10.256C67.9577 10.328 67.9457 10.384 67.9457 10.424C67.9457 10.472 67.9537 10.504 67.9697 10.52C67.9937 10.536 67.9977 10.576 67.9817 10.64C67.9497 10.712 67.9057 10.8 67.8497 10.904C67.8017 11.008 67.7457 11.06 67.6817 11.06ZM69.7009 11.228C69.6689 11.18 69.6849 11.104 69.7489 11C69.8049 10.904 69.8729 10.8 69.9529 10.688C70.0409 10.568 70.0969 10.464 70.1209 10.376C70.2249 10.184 70.3329 9.996 70.4449 9.812C70.5569 9.628 70.6369 9.496 70.6849 9.416L70.6969 9.428C70.8409 9.268 70.9689 9.104 71.0809 8.936C71.2009 8.768 71.3169 8.62 71.4289 8.492C71.4289 8.492 71.4849 8.428 71.5969 8.3C71.7169 8.172 71.8649 8.008 72.0409 7.808C72.2169 7.6 72.4049 7.384 72.6049 7.16C72.8049 6.936 72.9929 6.724 73.1689 6.524C73.3529 6.316 73.5009 6.152 73.6129 6.032C73.7249 5.904 73.7809 5.84 73.7809 5.84C73.7969 5.8 73.8449 5.744 73.9249 5.672C74.0049 5.6 74.0449 5.56 74.0449 5.552C74.1489 5.432 74.2169 5.344 74.2489 5.288C74.2809 5.232 74.3129 5.176 74.3449 5.12C74.3849 5.064 74.4649 4.984 74.5849 4.88C74.6089 4.848 74.6809 4.764 74.8009 4.628C74.9209 4.492 75.0569 4.34 75.2089 4.172C75.3609 3.996 75.4929 3.84 75.6049 3.704C75.7249 3.568 75.7929 3.488 75.8089 3.464C75.8169 3.456 75.8529 3.412 75.9169 3.332C75.9889 3.244 76.0689 3.152 76.1569 3.056C76.2449 2.96 76.3129 2.892 76.3609 2.852C76.4009 2.812 76.4489 2.784 76.5049 2.768C76.5689 2.744 76.6129 2.732 76.6369 2.732H76.6249C76.7129 2.7 76.8009 2.684 76.8889 2.684C77.1049 2.684 77.2209 2.776 77.2369 2.96C77.3089 3.08 77.3449 3.176 77.3449 3.248C77.3449 3.368 77.2889 3.46 77.1769 3.524C77.0649 3.58 76.9609 3.64 76.8649 3.704C76.8169 3.736 76.7369 3.804 76.6249 3.908C76.5129 4.012 76.3929 4.128 76.2649 4.256C76.1369 4.376 76.0169 4.488 75.9049 4.592C75.8009 4.696 75.7289 4.768 75.6889 4.808C75.6169 4.88 75.5049 4.996 75.3529 5.156C75.2009 5.316 75.0529 5.472 74.9089 5.624C74.7729 5.768 74.6729 5.868 74.6089 5.924C74.5849 5.948 74.5169 6.012 74.4049 6.116C74.2929 6.22 74.1689 6.336 74.0329 6.464C73.8969 6.584 73.7729 6.696 73.6609 6.8C73.5489 6.896 73.4769 6.952 73.4449 6.968C73.2289 7.2 73.0009 7.46 72.7609 7.748C72.5289 8.028 72.3049 8.3 72.0889 8.564C71.8729 8.82 71.6929 9.04 71.5489 9.224C71.4129 9.408 71.3329 9.516 71.3089 9.548C71.1889 9.74 71.0889 9.896 71.0089 10.016C70.9289 10.136 70.8529 10.24 70.7809 10.328C70.7169 10.416 70.6369 10.516 70.5409 10.628C70.4449 10.732 70.3249 10.872 70.1809 11.048C70.1009 11.144 70.0049 11.204 69.8929 11.228C69.7809 11.252 69.7169 11.252 69.7009 11.228ZM75.7433 10.028C75.6713 10.028 75.6073 10.008 75.5513 9.968C75.5033 9.928 75.4793 9.868 75.4793 9.788C75.4793 9.668 75.5433 9.496 75.6713 9.272C75.7673 9.112 75.8473 9.004 75.9113 8.948C75.9833 8.884 76.0473 8.84 76.1033 8.816C76.1673 8.784 76.2393 8.748 76.3193 8.708C76.4073 8.668 76.5193 8.596 76.6553 8.492C76.8393 8.348 77.0393 8.204 77.2553 8.06C77.4713 7.916 77.6713 7.784 77.8553 7.664C78.0473 7.536 78.1953 7.428 78.2993 7.34C78.4113 7.252 78.4513 7.192 78.4193 7.16C78.4193 7.16 78.3873 7.116 78.3233 7.028C78.2673 6.94 78.2233 6.9 78.1913 6.908C78.0633 6.844 77.8833 6.784 77.6513 6.728C77.4193 6.664 77.2113 6.54 77.0273 6.356L76.8473 6.164C76.8473 6.148 76.8113 6.136 76.7393 6.128C76.6673 6.112 76.5953 6.1 76.5233 6.092C76.4593 6.084 76.4233 6.072 76.4153 6.056C76.3833 5.936 76.3473 5.864 76.3073 5.84C76.2673 5.808 76.1873 5.752 76.0673 5.672C76.0513 5.664 76.0273 5.664 75.9953 5.672C75.9633 5.672 75.9393 5.668 75.9233 5.66C75.9153 5.644 75.9153 5.62 75.9233 5.588C75.9313 5.556 75.9313 5.544 75.9233 5.552C75.6433 5.576 75.5033 5.484 75.5033 5.276C75.5033 5.188 75.5273 5.092 75.5753 4.988L75.6113 4.94C75.6113 4.94 75.6593 4.892 75.7553 4.796C75.8593 4.7 75.9753 4.652 76.1033 4.652C76.1913 4.652 76.2673 4.68 76.3313 4.736C76.3953 4.784 76.4953 4.844 76.6313 4.916C76.7673 4.988 76.9113 5.124 77.0633 5.324C77.1273 5.404 77.1913 5.48 77.2553 5.552V5.576C77.2873 5.616 77.3433 5.64 77.4233 5.648C77.5033 5.656 77.5673 5.68 77.6152 5.72C77.6393 5.736 77.6753 5.752 77.7233 5.768C77.7713 5.776 77.8113 5.788 77.8433 5.804C78.0353 5.948 78.2313 6.08 78.4313 6.2C78.6313 6.312 78.8033 6.4 78.9473 6.464C79.0913 6.52 79.1673 6.544 79.1753 6.536C79.3513 6.6 79.4513 6.68 79.4753 6.776C79.5073 6.872 79.5153 6.956 79.4993 7.028C79.4833 7.1 79.4873 7.132 79.5113 7.124C79.4873 7.196 79.4233 7.28 79.3193 7.376C79.2153 7.472 79.0993 7.568 78.9713 7.664C78.8513 7.752 78.7433 7.832 78.6473 7.904C78.5513 7.976 78.4913 8.02 78.4673 8.036C78.4353 8.044 78.4153 8.064 78.4073 8.096C78.3993 8.128 78.3673 8.16 78.3113 8.192C78.1193 8.296 77.9433 8.416 77.7833 8.552C77.6313 8.68 77.4873 8.772 77.3513 8.828L77.3393 8.852C77.3233 8.852 77.2913 8.872 77.2433 8.912C77.1953 8.952 77.1513 8.98 77.1113 8.996L77.1233 8.984C77.1153 8.992 77.0753 9.032 77.0033 9.104C76.9313 9.176 76.8793 9.228 76.8473 9.26C76.7593 9.308 76.7113 9.336 76.7033 9.344C76.6953 9.352 76.6473 9.404 76.5593 9.5L76.1993 9.86C76.0473 9.972 75.8953 10.028 75.7433 10.028Z" fill="black"/>
</svg>
